
<svg width="300px" height="260px" viewBox="0 0 300 260" version="1.1" xmlns="http://www.w3.org/2000/svg" xmlns:xlink="http://www.w3.org/1999/xlink">
    <g id="Page-1" stroke="none" stroke-width="1" fill="none" fill-rule="evenodd">
        <g id="Artboard" transform="translate(-31, -27)" fill="#3c3c43">
            <g id="Group-2" transform="translate(31, 27)">
                <polygon id="Path" points="0 100 139.924215 30 240 80 240 110 100 180 0 130"></polygon>
                <polygon id="Path" points="0 140 100 190 300 90 299.836973 120 100 220 0 170"></polygon>
                <polygon id="Path-2" points="249 106 249 75.6833068 300 50 300 79.9787211"></polygon>
                <polygon id="Path" points="0 180 100.054372 230 300 130 300 160 100.054372 260 0 210"></polygon>
                <polygon id="Path-3" points="249.273817 76 150 23.7561158 199.636908 3.12944394e-15 300 50.1971315"></polygon>
                <polygon id="Path-4" points="240 80 139.924215 30 1.28262148e-14 100 99.8939004 150"></polygon>
            </g>
        </g>
    </g>
</svg>